# xmcd
#
# Track frame offsets:
#	150
#	22712
#	55023
#	103246
#
# Disc length: 1930 seconds
#
# Revision: 0
# Processed by: cddbd v1.5.1PL0 Copyright (c) Steve Scherf et al.
# Submitted via: dBpowerAMP V4.0
#
DISCID=25078804
DTITLE=Various Artist - Stories You'll Love, From Dewberry Farms
DYEAR=2004
DGENRE=Country
TTITLE0=How It All Began
TTITLE1=The Great Corn Heist
TTITLE2=The Prize Pig
TTITLE3=Ms. Mary's Well
EXTD=Dewberry Farm is a magical place with fresh air, sunshine and a more simple way of life.\n
EXTT0=
EXTT1=
EXTT2=
EXTT3=
PLAYORDER=
